<svg xmlns="http://www.w3.org/2000/svg" viewBox="0 0 180 180" role="img" aria-label="goodbird">
  <rect width="180" height="180" rx="40" fill="#f4f8f2"/>
  <g transform="translate(20 56) scale(3.6)" fill="oklch(0.38 0.1 160)">
    <path d="M 8 16 C 6 13, 4 10, 3 5 C 4 5, 5 6, 6 8 C 7 11, 8 13, 9 15 Z"/>
    <path d="M 7 14 C 7 18, 11 19, 15 19 C 19 19, 22 18, 23 15 C 24 12, 23 10, 21 9 C 18 7, 13 7, 10 9 C 7 11, 7 13, 7 14 Z"/>
    <circle cx="20.5" cy="10" r="3.6"/>
    <path d="M 23.6 10 L 27.4 9.6 L 23.6 11.2 Z"/>
  </g>
  <circle cx="93.8" cy="92.6" r="2.4" fill="#f4f8f2"/>
  <g transform="translate(120 90)" fill="none" stroke="oklch(0.38 0.1 160)" stroke-linecap="round">
    <path d="M 0 -15 Q 15 0, 0 15" stroke-width="6" opacity="0.95"/>
    <path d="M 15 -26 Q 38 0, 15 26" stroke-width="6" opacity="0.55"/>
    <path d="M 30 -38 Q 60 0, 30 38" stroke-width="6" opacity="0.25"/>
  </g>
</svg>
