<svg xmlns="http://www.w3.org/2000/svg" viewBox="0 0 96 96" role="img" aria-label="goodbird">
  <g transform="translate(8 26) scale(2.0)" fill="oklch(0.38 0.1 160)">
    <!-- Tail -->
    <path d="M 8 16 C 6 13, 4 10, 3 5 C 4 5, 5 6, 6 8 C 7 11, 8 13, 9 15 Z"/>
    <!-- Body -->
    <path d="M 7 14 C 7 18, 11 19, 15 19 C 19 19, 22 18, 23 15 C 24 12, 23 10, 21 9 C 18 7, 13 7, 10 9 C 7 11, 7 13, 7 14 Z"/>
    <!-- Head -->
    <circle cx="20.5" cy="10" r="3.6"/>
    <!-- Beak -->
    <path d="M 23.6 10 L 27.4 9.6 L 23.6 11.2 Z"/>
  </g>
  <!-- Eye -->
  <circle cx="51.2" cy="45.2" r="1.3" fill="#f4f8f2"/>
  <!-- Sound waves -->
  <g transform="translate(64 48)" fill="none" stroke="oklch(0.38 0.1 160)" stroke-linecap="round">
    <path d="M 0 -8 Q 8 0, 0 8" stroke-width="3.5" opacity="0.95"/>
    <path d="M 8 -14 Q 20 0, 8 14" stroke-width="3.5" opacity="0.55"/>
    <path d="M 16 -20 Q 32 0, 16 20" stroke-width="3.5" opacity="0.25"/>
  </g>
</svg>
